<?xml version="1.0" encoding="utf-8"?>
<!-- Generator: Adobe Illustrator 24.3.0, SVG Export Plug-In . SVG Version: 6.00 Build 0)  -->
<svg version="1.1" id="レイヤー_1" xmlns="http://www.w3.org/2000/svg" xmlns:xlink="http://www.w3.org/1999/xlink" x="0px"
	 y="0px" viewBox="0 0 1000 142.57" enable-background="new 0 0 1000 142.57" xml:space="preserve">
<g>
	<g>
		<g>
			
				<linearGradient id="SVGID_1_" gradientUnits="userSpaceOnUse" x1="37.945" y1="5026.7217" x2="37.945" y2="5129.1963" gradientTransform="matrix(1 0 0 1 0 -5008.2295)">
				<stop  offset="0" style="stop-color:#FEF336"/>
				<stop  offset="0.5" style="stop-color:#FC6D21"/>
			</linearGradient>
			<polygon fill="none" stroke="url(#SVGID_1_)" stroke-width="32" stroke-linejoin="round" points="34.33,20.14 23.81,72.74 
				40.9,72.74 52.08,20.14 			"/>
			
				<linearGradient id="SVGID_2_" gradientUnits="userSpaceOnUse" x1="102.055" y1="5026.7217" x2="102.055" y2="5129.1963" gradientTransform="matrix(1 0 0 1 0 -5008.2295)">
				<stop  offset="0" style="stop-color:#FEF336"/>
				<stop  offset="0.5" style="stop-color:#FC6D21"/>
			</linearGradient>
			<polygon fill="none" stroke="url(#SVGID_2_)" stroke-width="32" stroke-linejoin="round" points="58,20.14 148.41,20.14 
				146.11,32.96 109.94,32.96 101.72,74.38 82.66,74.38 91.2,31.97 55.7,31.97 			"/>
			
				<linearGradient id="SVGID_3_" gradientUnits="userSpaceOnUse" x1="190.3748" y1="5026.7217" x2="190.3748" y2="5129.1963" gradientTransform="matrix(1 0 0 1 0 -5008.2295)">
				<stop  offset="0" style="stop-color:#FEF336"/>
				<stop  offset="0.5" style="stop-color:#FC6D21"/>
			</linearGradient>
			<path fill="none" stroke="url(#SVGID_3_)" stroke-width="32" stroke-linejoin="round" d="M222.71,20.14h-68.05l-11.51,52.6h19.07
				l3.95-20.38h47.34l-3.95,20.38h20.38c0,0,6.97-27.29,7.62-35.84C238.23,28.35,230.27,20.14,222.71,20.14z M167.81,38.55
				l1.64-8.22h41.42c0,0,5.26,0.66,5.26,8.22H167.81z"/>
			
				<linearGradient id="SVGID_4_" gradientUnits="userSpaceOnUse" x1="286.055" y1="5026.7217" x2="286.055" y2="5129.1963" gradientTransform="matrix(1 0 0 1 0 -5008.2295)">
				<stop  offset="0" style="stop-color:#FEF336"/>
				<stop  offset="0.5" style="stop-color:#FC6D21"/>
			</linearGradient>
			<path fill="none" stroke="url(#SVGID_4_)" stroke-width="32" stroke-linejoin="round" d="M334.49,21.78h-66.41
				c0,0-16.77-0.66-26.3,30.58h63.1c10.52,0,10.55,12.16,0.36,12.16s-65.42,0-65.42,0l-2.2,9.86h81.76c0,0,12.16-3.62,12.16-18.08
				s-7.23-14.47-7.23-14.47h-57.53c0,0,1.97-6.9,7.23-9.21h58.85L334.49,21.78z"/>
			
				<linearGradient id="SVGID_5_" gradientUnits="userSpaceOnUse" x1="388.575" y1="5026.7217" x2="388.575" y2="5129.1963" gradientTransform="matrix(1 0 0 1 0 -5008.2295)">
				<stop  offset="0" style="stop-color:#FEF336"/>
				<stop  offset="0.5" style="stop-color:#FC6D21"/>
			</linearGradient>
			<polygon fill="none" stroke="url(#SVGID_5_)" stroke-width="32" stroke-linejoin="round" points="346.99,20.14 337.12,72.74 
				354.55,72.74 358.16,53.01 414.38,53.01 410.44,74.38 428.19,74.38 440.03,20.14 422.27,20.14 417.67,38.55 361.78,38.55 
				365.4,20.14 			"/>
			
				<linearGradient id="SVGID_6_" gradientUnits="userSpaceOnUse" x1="482.2894" y1="5026.7217" x2="482.2894" y2="5129.1963" gradientTransform="matrix(1 0 0 1 0 -5008.2295)">
				<stop  offset="0" style="stop-color:#FEF336"/>
				<stop  offset="0.5" style="stop-color:#FC6D21"/>
			</linearGradient>
			<path fill="none" stroke="url(#SVGID_6_)" stroke-width="32" stroke-linejoin="round" d="M514.33,20.14l-68.05-1.64l-10.85,54.25
				h18.08l3.95-20.71h48.33l-3.95,20.71h19.4l6.9-33.86C533.72,21.12,514.33,20.14,514.33,20.14z M508.74,39.53h-48.66l1.97-10.19
				h42.41C504.46,29.34,509.07,30,508.74,39.53z"/>
			
				<linearGradient id="SVGID_7_" gradientUnits="userSpaceOnUse" x1="624.96" y1="5026.7217" x2="624.96" y2="5129.1963" gradientTransform="matrix(1 0 0 1 0 -5008.2295)">
				<stop  offset="0" style="stop-color:#FEF336"/>
				<stop  offset="0.5" style="stop-color:#FC6D21"/>
			</linearGradient>
			<path fill="none" stroke="url(#SVGID_7_)" stroke-width="32" stroke-linejoin="round" d="M572.85,20.14L562,72.74l45.37,1.64
				c0,0,7.56,0.66,17.1-6.58v4.93h34.19c0,0,21.37-0.66,24.99-27.12l4.27-25.48h-19.4c0,0-3.62,37.15-13.48,43.4l-22.68-0.66
				l9.53-42.74h-20.71c0,0-4.6,37.81-13.81,43.07H581.4l9.21-43.07h-17.76L572.85,20.14L572.85,20.14z"/>
			
				<linearGradient id="SVGID_8_" gradientUnits="userSpaceOnUse" x1="737.4" y1="5026.7217" x2="737.4" y2="5129.1963" gradientTransform="matrix(1 0 0 1 0 -5008.2295)">
				<stop  offset="0" style="stop-color:#FEF336"/>
				<stop  offset="0.5" style="stop-color:#FC6D21"/>
			</linearGradient>
			<path fill="none" stroke="url(#SVGID_8_)" stroke-width="32" stroke-linejoin="round" d="M786.88,18.49L730,20.13
				c0,0-30.9,0.02-36.49,27.13c-5.59,27.12-5.59,25.47-5.59,25.47h86.14l1.97-10.85h-66.08l1.97-11.51h65.42l2.3-10.85h-64.11
				c0,0-1.32-9.53,20.38-10.19s48.33,0,48.33,0L786.88,18.49z"/>
			
				<linearGradient id="SVGID_9_" gradientUnits="userSpaceOnUse" x1="831.09" y1="5026.7217" x2="831.09" y2="5129.1963" gradientTransform="matrix(1 0 0 1 0 -5008.2295)">
				<stop  offset="0" style="stop-color:#FEF336"/>
				<stop  offset="0.5" style="stop-color:#FC6D21"/>
			</linearGradient>
			<path fill="none" stroke="url(#SVGID_9_)" stroke-width="32" stroke-linejoin="round" d="M880.57,18.49l-56.88,1.64
				c0,0-30.9,0.02-36.49,27.13c-5.59,27.12-5.59,25.47-5.59,25.47h86.14l1.97-10.85h-66.08l1.97-11.51h65.42l2.3-10.85h-64.11
				c0,0-1.32-9.53,20.38-10.19s48.33,0,48.33,0L880.57,18.49z"/>
			
				<linearGradient id="SVGID_10_" gradientUnits="userSpaceOnUse" x1="926.055" y1="5026.7217" x2="926.055" y2="5129.1963" gradientTransform="matrix(1 0 0 1 0 -5008.2295)">
				<stop  offset="0" style="stop-color:#FEF336"/>
				<stop  offset="0.5" style="stop-color:#FC6D21"/>
			</linearGradient>
			<polygon fill="none" stroke="url(#SVGID_10_)" stroke-width="32" stroke-linejoin="round" points="886.82,19.81 875.86,73.94 
				893.18,73.94 895.59,60.57 909.83,53.34 935.48,73.94 963.09,73.94 926.05,45.62 976.25,19.81 948.85,19.81 899.53,44.14 
				904.36,19.81 			"/>
		</g>
		<g>
			
				<linearGradient id="SVGID_11_" gradientUnits="userSpaceOnUse" x1="318.0004" y1="5026.7217" x2="318.0004" y2="5129.1963" gradientTransform="matrix(1 0 0 1 0 -5008.2295)">
				<stop  offset="0" style="stop-color:#FEF336"/>
				<stop  offset="0.5" style="stop-color:#FC6D21"/>
			</linearGradient>
			<path fill="none" stroke="url(#SVGID_11_)" stroke-width="32" stroke-linejoin="round" d="M335.84,90.68h-37.55l-6.35,29.03
				h10.52l2.18-11.25h26.12l-2.18,11.25h11.25c0,0,3.84-15.06,4.21-19.77C344.4,95.22,340.01,90.68,335.84,90.68z M305.54,100.84
				l0.91-4.54h22.86c0,0,2.9,0.36,2.9,4.54H305.54z"/>
			
				<linearGradient id="SVGID_12_" gradientUnits="userSpaceOnUse" x1="265.615" y1="5026.7217" x2="265.615" y2="5129.1963" gradientTransform="matrix(1 0 0 1 0 -5008.2295)">
				<stop  offset="0" style="stop-color:#FEF336"/>
				<stop  offset="0.5" style="stop-color:#FC6D21"/>
			</linearGradient>
			<path fill="none" stroke="url(#SVGID_12_)" stroke-width="32" stroke-linejoin="round" d="M292.34,91.59h-36.65
				c0,0-9.25-0.36-14.51,16.87H276c5.81,0,5.82,6.71,0.2,6.71s-36.1,0-36.1,0l-1.21,5.44h45.12c0,0,6.71-2,6.71-9.98
				s-3.99-7.98-3.99-7.98h-31.75c0,0,1.09-3.81,3.99-5.08h32.47L292.34,91.59z"/>
			
				<linearGradient id="SVGID_13_" gradientUnits="userSpaceOnUse" x1="370.795" y1="5026.7217" x2="370.795" y2="5129.1963" gradientTransform="matrix(1 0 0 1 0 -5008.2295)">
				<stop  offset="0" style="stop-color:#FEF336"/>
				<stop  offset="0.5" style="stop-color:#FC6D21"/>
			</linearGradient>
			<path fill="none" stroke="url(#SVGID_13_)" stroke-width="32" stroke-linejoin="round" d="M397.52,91.59h-36.65
				c0,0-9.25-0.36-14.51,16.87h34.82c5.81,0,5.82,6.71,0.2,6.71s-36.1,0-36.1,0l-1.21,5.44h45.12c0,0,6.71-2,6.71-9.98
				s-3.99-7.98-3.99-7.98h-31.75c0,0,1.09-3.81,3.99-5.08h32.47L397.52,91.59z"/>
			
				<linearGradient id="SVGID_14_" gradientUnits="userSpaceOnUse" x1="424.195" y1="5026.7217" x2="424.195" y2="5129.1963" gradientTransform="matrix(1 0 0 1 0 -5008.2295)">
				<stop  offset="0" style="stop-color:#FEF336"/>
				<stop  offset="0.5" style="stop-color:#FC6D21"/>
			</linearGradient>
			<path fill="none" stroke="url(#SVGID_14_)" stroke-width="32" stroke-linejoin="round" d="M451.5,89.76l-31.39,0.91
				c0,0-17.05,0.01-20.14,14.97s-3.08,14.06-3.08,14.06h47.53l1.09-5.99h-36.47l1.09-6.35h36.1l1.27-5.99h-35.38
				c0,0-0.73-5.26,11.25-5.62s26.67,0,26.67,0L451.5,89.76z"/>
			
				<linearGradient id="SVGID_15_" gradientUnits="userSpaceOnUse" x1="475.0336" y1="5026.7217" x2="475.0336" y2="5129.1963" gradientTransform="matrix(1 0 0 1 0 -5008.2295)">
				<stop  offset="0" style="stop-color:#FEF336"/>
				<stop  offset="0.5" style="stop-color:#FC6D21"/>
			</linearGradient>
			<path fill="none" stroke="url(#SVGID_15_)" stroke-width="32" stroke-linejoin="round" d="M492.98,89.42c-7.85,0-37.78,0-37.78,0
				l-5.19,31.54h47.41v-10c0,0,1.19,0.31-1.04-2.31h3.65V97.57C500.04,97.58,500.84,89.42,492.98,89.42z M487.65,115.12h-27.78
				l0.77-6.46c0,0,19.75,0,23.45,0S487.65,115.12,487.65,115.12z M490.79,101.73H461.2l0.61-6.46c0,0,21.72,0,25.43,0
				S490.79,101.73,490.79,101.73z"/>
			
				<linearGradient id="SVGID_16_" gradientUnits="userSpaceOnUse" x1="532.6356" y1="5026.7217" x2="532.6356" y2="5129.1963" gradientTransform="matrix(1 0 0 1 0 -5008.2295)">
				<stop  offset="0" style="stop-color:#FEF336"/>
				<stop  offset="0.5" style="stop-color:#FC6D21"/>
			</linearGradient>
			<path fill="none" stroke="url(#SVGID_16_)" stroke-width="32" stroke-linejoin="round" d="M555.07,89.99c0,0-38.08-0.57-39.44,0
				c-24.03,19.38-5.33,29.58-5.33,29.58s36.16,0.83,38.08,0C574.23,104.27,555.07,89.99,555.07,89.99z M542.58,114.15
				c-1.22,0.52-24.05,0-24.05,0s-11.81-6.44,3.36-18.68c0.86-0.36,24.91,0,24.91,0S558.9,104.48,542.58,114.15z"/>
			
				<linearGradient id="SVGID_17_" gradientUnits="userSpaceOnUse" x1="595.5433" y1="5026.7217" x2="595.5433" y2="5129.1963" gradientTransform="matrix(1 0 0 1 0 -5008.2295)">
				<stop  offset="0" style="stop-color:#FEF336"/>
				<stop  offset="0.5" style="stop-color:#FC6D21"/>
			</linearGradient>
			<path fill="none" stroke="url(#SVGID_17_)" stroke-width="32" stroke-linejoin="round" d="M573.68,89.74l45.03,0.32
				c0,0,14.49,9.18-2.96,18.06l-39.57,1.09c0,0-3.74,1.4-2.49,4.99H617c0,0,7.32,1.56,0,6.08h-49.23c0,0-4.52-9.66,5.3-18.07h41.76
				c0,0,3.9,0.16,2.34-5.61h-43.63C573.53,96.6,567.45,94.42,573.68,89.74z"/>
			
				<linearGradient id="SVGID_18_" gradientUnits="userSpaceOnUse" x1="712.5133" y1="5026.7217" x2="712.5133" y2="5129.1963" gradientTransform="matrix(1 0 0 1 0 -5008.2295)">
				<stop  offset="0" style="stop-color:#FEF336"/>
				<stop  offset="0.5" style="stop-color:#FC6D21"/>
			</linearGradient>
			<path fill="none" stroke="url(#SVGID_18_)" stroke-width="32" stroke-linejoin="round" d="M690.65,89.74l45.03,0.32
				c0,0,14.49,9.18-2.96,18.06l-39.57,1.09c0,0-3.74,1.4-2.49,4.99h43.31c0,0,7.32,1.56,0,6.08h-49.23c0,0-4.52-9.66,5.3-18.07
				h41.76c0,0,3.9,0.16,2.34-5.61h-43.63C690.49,96.6,684.42,94.42,690.65,89.74z"/>
			<g>
				
					<linearGradient id="SVGID_19_" gradientUnits="userSpaceOnUse" x1="654.5544" y1="5026.7217" x2="654.5544" y2="5129.1963" gradientTransform="matrix(1 0 0 1 0 -5008.2295)">
					<stop  offset="0" style="stop-color:#FEF336"/>
					<stop  offset="0.5" style="stop-color:#FC6D21"/>
				</linearGradient>
				<path fill="none" stroke="url(#SVGID_19_)" stroke-width="32" stroke-linejoin="round" d="M668.85,102.13h-28.28
					c-5.84,3.74,0,7.25,0,7.25h28.28C673.99,104.47,668.85,102.13,668.85,102.13z"/>
				
					<linearGradient id="SVGID_20_" gradientUnits="userSpaceOnUse" x1="653.2875" y1="5026.7217" x2="653.2875" y2="5129.1963" gradientTransform="matrix(1 0 0 1 0 -5008.2295)">
					<stop  offset="0" style="stop-color:#FEF336"/>
					<stop  offset="0.5" style="stop-color:#FC6D21"/>
				</linearGradient>
				<path fill="none" stroke="url(#SVGID_20_)" stroke-width="32" stroke-linejoin="round" d="M676.19,92.14
					c-6.32-2.95-37.59-3.62-42.02,1.49c-17.16,15.17-1.32,25.6-1.32,25.6s33.44,0.81,35.22,0
					C683.09,113.18,682.51,95.08,676.19,92.14z M667.58,113.49c-1.01,0.44-30.7,0-30.7,0s-9.82-6.79,2.8-16.97
					c0.71-0.3,31.41,0,31.41,0S681.15,105.45,667.58,113.49z"/>
			</g>
			
				<linearGradient id="SVGID_21_" gradientUnits="userSpaceOnUse" x1="752.7518" y1="5026.7217" x2="752.7518" y2="5129.1963" gradientTransform="matrix(1 0 0 1 0 -5008.2295)">
				<stop  offset="0" style="stop-color:#FEF336"/>
				<stop  offset="0.5" style="stop-color:#FC6D21"/>
			</linearGradient>
			<path fill="none" stroke="url(#SVGID_21_)" stroke-width="32" stroke-linejoin="round" d="M749.35,90.04
				c0,0,11.69-2.16,10.52,9.99l-3.51,18.46c0,0-8.18,6.31-7.01-2.8l3.51-15.66c0,0,1.69-5.36-6.54-3.27
				C746.31,96.75,743.27,91.27,749.35,90.04z"/>
		</g>
	</g>
	<g>
		<g>
			<polygon fill="none" stroke="#000000" stroke-width="30" stroke-linejoin="round" points="34.33,20.14 23.81,72.74 40.9,72.74 
				52.08,20.14 			"/>
			<polygon fill="none" stroke="#000000" stroke-width="30" stroke-linejoin="round" points="58,20.14 148.41,20.14 146.11,32.96 
				109.94,32.96 101.72,74.38 82.66,74.38 91.2,31.97 55.7,31.97 			"/>
			<path fill="none" stroke="#000000" stroke-width="30" stroke-linejoin="round" d="M222.71,20.14h-68.05l-11.51,52.6h19.07
				l3.95-20.38h47.34l-3.95,20.38h20.38c0,0,6.97-27.29,7.62-35.84C238.23,28.35,230.27,20.14,222.71,20.14z M167.81,38.55
				l1.64-8.22h41.42c0,0,5.26,0.66,5.26,8.22H167.81z"/>
			<path fill="none" stroke="#000000" stroke-width="30" stroke-linejoin="round" d="M334.49,21.78h-66.41
				c0,0-16.77-0.66-26.3,30.58h63.1c10.52,0,10.55,12.16,0.36,12.16s-65.42,0-65.42,0l-2.2,9.86h81.76c0,0,12.16-3.62,12.16-18.08
				s-7.23-14.47-7.23-14.47h-57.53c0,0,1.97-6.9,7.23-9.21h58.85L334.49,21.78z"/>
			<polygon fill="none" stroke="#000000" stroke-width="30" stroke-linejoin="round" points="346.99,20.14 337.12,72.74 
				354.55,72.74 358.16,53.01 414.38,53.01 410.44,74.38 428.19,74.38 440.03,20.14 422.27,20.14 417.67,38.55 361.78,38.55 
				365.4,20.14 			"/>
			<path fill="none" stroke="#000000" stroke-width="30" stroke-linejoin="round" d="M514.33,20.14l-68.05-1.64l-10.85,54.25h18.08
				l3.95-20.71h48.33l-3.95,20.71h19.4l6.9-33.86C533.72,21.12,514.33,20.14,514.33,20.14z M508.74,39.53h-48.66l1.97-10.19h42.41
				C504.46,29.34,509.07,30,508.74,39.53z"/>
			<path fill="none" stroke="#000000" stroke-width="30" stroke-linejoin="round" d="M572.85,20.14L562,72.74l45.37,1.64
				c0,0,7.56,0.66,17.1-6.58v4.93h34.19c0,0,21.37-0.66,24.99-27.12l4.27-25.48h-19.4c0,0-3.62,37.15-13.48,43.4l-22.68-0.66
				l9.53-42.74h-20.71c0,0-4.6,37.81-13.81,43.07H581.4l9.21-43.07h-17.76L572.85,20.14L572.85,20.14z"/>
			<path fill="none" stroke="#000000" stroke-width="30" stroke-linejoin="round" d="M786.88,18.49L730,20.13
				c0,0-30.9,0.02-36.49,27.13c-5.59,27.12-5.59,25.47-5.59,25.47h86.14l1.97-10.85h-66.08l1.97-11.51h65.42l2.3-10.85h-64.11
				c0,0-1.32-9.53,20.38-10.19s48.33,0,48.33,0L786.88,18.49z"/>
			<path fill="none" stroke="#000000" stroke-width="30" stroke-linejoin="round" d="M880.57,18.49l-56.88,1.64
				c0,0-30.9,0.02-36.49,27.13c-5.59,27.12-5.59,25.47-5.59,25.47h86.14l1.97-10.85h-66.08l1.97-11.51h65.42l2.3-10.85h-64.11
				c0,0-1.32-9.53,20.38-10.19s48.33,0,48.33,0L880.57,18.49z"/>
			<polygon fill="none" stroke="#000000" stroke-width="30" stroke-linejoin="round" points="886.82,19.81 875.86,73.94 
				893.18,73.94 895.59,60.57 909.83,53.34 935.48,73.94 963.09,73.94 926.05,45.62 976.25,19.81 948.85,19.81 899.53,44.14 
				904.36,19.81 			"/>
		</g>
		<g>
			<path fill="none" stroke="#000000" stroke-width="30" stroke-linejoin="round" d="M335.84,90.68h-37.55l-6.35,29.03h10.52
				l2.18-11.25h26.12l-2.18,11.25h11.25c0,0,3.84-15.06,4.21-19.77C344.4,95.22,340.01,90.68,335.84,90.68z M305.54,100.84
				l0.91-4.54h22.86c0,0,2.9,0.36,2.9,4.54H305.54z"/>
			<path fill="none" stroke="#000000" stroke-width="30" stroke-linejoin="round" d="M292.34,91.59h-36.65
				c0,0-9.25-0.36-14.51,16.87H276c5.81,0,5.82,6.71,0.2,6.71s-36.1,0-36.1,0l-1.21,5.44h45.12c0,0,6.71-2,6.71-9.98
				s-3.99-7.98-3.99-7.98h-31.75c0,0,1.09-3.81,3.99-5.08h32.47L292.34,91.59z"/>
			<path fill="none" stroke="#000000" stroke-width="30" stroke-linejoin="round" d="M397.52,91.59h-36.65
				c0,0-9.25-0.36-14.51,16.87h34.82c5.81,0,5.82,6.71,0.2,6.71s-36.1,0-36.1,0l-1.21,5.44h45.12c0,0,6.71-2,6.71-9.98
				s-3.99-7.98-3.99-7.98h-31.75c0,0,1.09-3.81,3.99-5.08h32.47L397.52,91.59z"/>
			<path fill="none" stroke="#000000" stroke-width="30" stroke-linejoin="round" d="M451.5,89.76l-31.39,0.91
				c0,0-17.05,0.01-20.14,14.97s-3.08,14.06-3.08,14.06h47.53l1.09-5.99h-36.47l1.09-6.35h36.1l1.27-5.99h-35.38
				c0,0-0.73-5.26,11.25-5.62s26.67,0,26.67,0L451.5,89.76z"/>
			<path fill="none" stroke="#000000" stroke-width="30" stroke-linejoin="round" d="M492.98,89.42c-7.85,0-37.78,0-37.78,0
				l-5.19,31.54h47.41v-10c0,0,1.19,0.31-1.04-2.31h3.65V97.57C500.04,97.58,500.84,89.42,492.98,89.42z M487.65,115.12h-27.78
				l0.77-6.46c0,0,19.75,0,23.45,0S487.65,115.12,487.65,115.12z M490.79,101.73H461.2l0.61-6.46c0,0,21.72,0,25.43,0
				S490.79,101.73,490.79,101.73z"/>
			<path fill="none" stroke="#000000" stroke-width="30" stroke-linejoin="round" d="M555.07,89.99c0,0-38.08-0.57-39.44,0
				c-24.03,19.38-5.33,29.58-5.33,29.58s36.16,0.83,38.08,0C574.23,104.27,555.07,89.99,555.07,89.99z M542.58,114.15
				c-1.22,0.52-24.05,0-24.05,0s-11.81-6.44,3.36-18.68c0.86-0.36,24.91,0,24.91,0S558.9,104.48,542.58,114.15z"/>
			<path fill="none" stroke="#000000" stroke-width="30" stroke-linejoin="round" d="M573.68,89.74l45.03,0.32
				c0,0,14.49,9.18-2.96,18.06l-39.57,1.09c0,0-3.74,1.4-2.49,4.99H617c0,0,7.32,1.56,0,6.08h-49.23c0,0-4.52-9.66,5.3-18.07h41.76
				c0,0,3.9,0.16,2.34-5.61h-43.63C573.53,96.6,567.45,94.42,573.68,89.74z"/>
			<path fill="none" stroke="#000000" stroke-width="30" stroke-linejoin="round" d="M690.65,89.74l45.03,0.32
				c0,0,14.49,9.18-2.96,18.06l-39.57,1.09c0,0-3.74,1.4-2.49,4.99h43.31c0,0,7.32,1.56,0,6.08h-49.23c0,0-4.52-9.66,5.3-18.07
				h41.76c0,0,3.9,0.16,2.34-5.61h-43.63C690.49,96.6,684.42,94.42,690.65,89.74z"/>
			<g>
				<path fill="none" stroke="#000000" stroke-width="30" stroke-linejoin="round" d="M668.85,102.13h-28.28
					c-5.84,3.74,0,7.25,0,7.25h28.28C673.99,104.47,668.85,102.13,668.85,102.13z"/>
				<path fill="none" stroke="#000000" stroke-width="30" stroke-linejoin="round" d="M676.19,92.14
					c-6.32-2.95-37.59-3.62-42.02,1.49c-17.16,15.17-1.32,25.6-1.32,25.6s33.44,0.81,35.22,0
					C683.09,113.18,682.51,95.08,676.19,92.14z M667.58,113.49c-1.01,0.44-30.7,0-30.7,0s-9.82-6.79,2.8-16.97
					c0.71-0.3,31.41,0,31.41,0S681.15,105.45,667.58,113.49z"/>
			</g>
			<path fill="none" stroke="#000000" stroke-width="30" stroke-linejoin="round" d="M749.35,90.04c0,0,11.69-2.16,10.52,9.99
				l-3.51,18.46c0,0-8.18,6.31-7.01-2.8l3.51-15.66c0,0,1.69-5.36-6.54-3.27C746.31,96.75,743.27,91.27,749.35,90.04z"/>
		</g>
	</g>
	<g>
		<g>
			<polygon points="34.33,20.14 23.81,72.74 40.9,72.74 52.08,20.14 			"/>
			<polygon points="58,20.14 148.41,20.14 146.11,32.96 109.94,32.96 101.72,74.38 82.66,74.38 91.2,31.97 55.7,31.97 			"/>
			<path d="M222.71,20.14h-68.05l-11.51,52.6h19.07l3.95-20.38h47.34l-3.95,20.38h20.38c0,0,6.97-27.29,7.62-35.84
				C238.23,28.35,230.27,20.14,222.71,20.14z M167.81,38.55l1.64-8.22h41.42c0,0,5.26,0.66,5.26,8.22H167.81z"/>
			<path d="M334.49,21.78h-66.41c0,0-16.77-0.66-26.3,30.58h63.1c10.52,0,10.55,12.16,0.36,12.16s-65.42,0-65.42,0l-2.2,9.86h81.76
				c0,0,12.16-3.62,12.16-18.08s-7.23-14.47-7.23-14.47h-57.53c0,0,1.97-6.9,7.23-9.21h58.85L334.49,21.78z"/>
			<polygon points="346.99,20.14 337.12,72.74 354.55,72.74 358.16,53.01 414.38,53.01 410.44,74.38 428.19,74.38 440.03,20.14 
				422.27,20.14 417.67,38.55 361.78,38.55 365.4,20.14 			"/>
			<path d="M514.33,20.14l-68.05-1.64l-10.85,54.25h18.08l3.95-20.71h48.33l-3.95,20.71h19.4l6.9-33.86
				C533.72,21.12,514.33,20.14,514.33,20.14z M508.74,39.53h-48.66l1.97-10.19h42.41C504.46,29.34,509.07,30,508.74,39.53z"/>
			<path d="M572.85,20.14L562,72.74l45.37,1.64c0,0,7.56,0.66,17.1-6.58v4.93h34.19c0,0,21.37-0.66,24.99-27.12l4.27-25.48h-19.4
				c0,0-3.62,37.15-13.48,43.4l-22.68-0.66l9.53-42.74h-20.71c0,0-4.6,37.81-13.81,43.07H581.4l9.21-43.07h-17.76L572.85,20.14
				L572.85,20.14z"/>
			<path d="M786.88,18.49L730,20.13c0,0-30.9,0.02-36.49,27.13c-5.59,27.12-5.59,25.47-5.59,25.47h86.14l1.97-10.85h-66.08
				l1.97-11.51h65.42l2.3-10.85h-64.11c0,0-1.32-9.53,20.38-10.19s48.33,0,48.33,0L786.88,18.49z"/>
			<path d="M880.57,18.49l-56.88,1.64c0,0-30.9,0.02-36.49,27.13c-5.59,27.12-5.59,25.47-5.59,25.47h86.14l1.97-10.85h-66.08
				l1.97-11.51h65.42l2.3-10.85h-64.11c0,0-1.32-9.53,20.38-10.19s48.33,0,48.33,0L880.57,18.49z"/>
			<polygon points="886.82,19.81 875.86,73.94 893.18,73.94 895.59,60.57 909.83,53.34 935.48,73.94 963.09,73.94 926.05,45.62 
				976.25,19.81 948.85,19.81 899.53,44.14 904.36,19.81 			"/>
		</g>
		<g>
			<path d="M335.84,90.68h-37.55l-6.35,29.03h10.52l2.18-11.25h26.12l-2.18,11.25h11.25c0,0,3.84-15.06,4.21-19.77
				C344.4,95.22,340.01,90.68,335.84,90.68z M305.54,100.84l0.91-4.54h22.86c0,0,2.9,0.36,2.9,4.54H305.54z"/>
			<path d="M292.34,91.59h-36.65c0,0-9.25-0.36-14.51,16.87H276c5.81,0,5.82,6.71,0.2,6.71s-36.1,0-36.1,0l-1.21,5.44h45.12
				c0,0,6.71-2,6.71-9.98s-3.99-7.98-3.99-7.98h-31.75c0,0,1.09-3.81,3.99-5.08h32.47L292.34,91.59z"/>
			<path d="M397.52,91.59h-36.65c0,0-9.25-0.36-14.51,16.87h34.82c5.81,0,5.82,6.71,0.2,6.71s-36.1,0-36.1,0l-1.21,5.44h45.12
				c0,0,6.71-2,6.71-9.98s-3.99-7.98-3.99-7.98h-31.75c0,0,1.09-3.81,3.99-5.08h32.47L397.52,91.59z"/>
			<path d="M451.5,89.76l-31.39,0.91c0,0-17.05,0.01-20.14,14.97s-3.08,14.06-3.08,14.06h47.53l1.09-5.99h-36.47l1.09-6.35h36.1
				l1.27-5.99h-35.38c0,0-0.73-5.26,11.25-5.62s26.67,0,26.67,0L451.5,89.76z"/>
			<path d="M492.98,89.42c-7.85,0-37.78,0-37.78,0l-5.19,31.54h47.41v-10c0,0,1.19,0.31-1.04-2.31h3.65V97.57
				C500.04,97.58,500.84,89.42,492.98,89.42z M487.65,115.12h-27.78l0.77-6.46c0,0,19.75,0,23.45,0S487.65,115.12,487.65,115.12z
				 M490.79,101.73H461.2l0.61-6.46c0,0,21.72,0,25.43,0S490.79,101.73,490.79,101.73z"/>
			<path d="M555.07,89.99c0,0-38.08-0.57-39.44,0c-24.03,19.38-5.33,29.58-5.33,29.58s36.16,0.83,38.08,0
				C574.23,104.27,555.07,89.99,555.07,89.99z M542.58,114.15c-1.22,0.52-24.05,0-24.05,0s-11.81-6.44,3.36-18.68
				c0.86-0.36,24.91,0,24.91,0S558.9,104.48,542.58,114.15z"/>
			<path d="M573.68,89.74l45.03,0.32c0,0,14.49,9.18-2.96,18.06l-39.57,1.09c0,0-3.74,1.4-2.49,4.99H617c0,0,7.32,1.56,0,6.08
				h-49.23c0,0-4.52-9.66,5.3-18.07h41.76c0,0,3.9,0.16,2.34-5.61h-43.63C573.53,96.6,567.45,94.42,573.68,89.74z"/>
			<path d="M690.65,89.74l45.03,0.32c0,0,14.49,9.18-2.96,18.06l-39.57,1.09c0,0-3.74,1.4-2.49,4.99h43.31c0,0,7.32,1.56,0,6.08
				h-49.23c0,0-4.52-9.66,5.3-18.07h41.76c0,0,3.9,0.16,2.34-5.61h-43.63C690.49,96.6,684.42,94.42,690.65,89.74z"/>
			<g>
				<path d="M668.85,102.13h-28.28c-5.84,3.74,0,7.25,0,7.25h28.28C673.99,104.47,668.85,102.13,668.85,102.13z"/>
				<path d="M676.19,92.14c-6.32-2.95-37.59-3.62-42.02,1.49c-17.16,15.17-1.32,25.6-1.32,25.6s33.44,0.81,35.22,0
					C683.09,113.18,682.51,95.08,676.19,92.14z M667.58,113.49c-1.01,0.44-30.7,0-30.7,0s-9.82-6.79,2.8-16.97
					c0.71-0.3,31.41,0,31.41,0S681.15,105.45,667.58,113.49z"/>
			</g>
			<path d="M749.35,90.04c0,0,11.69-2.16,10.52,9.99l-3.51,18.46c0,0-8.18,6.31-7.01-2.8l3.51-15.66c0,0,1.69-5.36-6.54-3.27
				C746.31,96.75,743.27,91.27,749.35,90.04z"/>
		</g>
	</g>
	<g>
		<g>
			
				<linearGradient id="SVGID_22_" gradientUnits="userSpaceOnUse" x1="37.945" y1="5026.7217" x2="37.945" y2="5129.1963" gradientTransform="matrix(1 0 0 1 0 -5008.2295)">
				<stop  offset="0" style="stop-color:#FEF336"/>
				<stop  offset="0.5" style="stop-color:#FC6D21"/>
			</linearGradient>
			<polygon fill="url(#SVGID_22_)" points="34.33,20.14 23.81,72.74 40.9,72.74 52.08,20.14 			"/>
			
				<linearGradient id="SVGID_23_" gradientUnits="userSpaceOnUse" x1="102.055" y1="5026.7217" x2="102.055" y2="5129.1963" gradientTransform="matrix(1 0 0 1 0 -5008.2295)">
				<stop  offset="0" style="stop-color:#FEF336"/>
				<stop  offset="0.5" style="stop-color:#FC6D21"/>
			</linearGradient>
			<polygon fill="url(#SVGID_23_)" points="58,20.14 148.41,20.14 146.11,32.96 109.94,32.96 101.72,74.38 82.66,74.38 91.2,31.97 
				55.7,31.97 			"/>
			
				<linearGradient id="SVGID_24_" gradientUnits="userSpaceOnUse" x1="190.3748" y1="5026.7217" x2="190.3748" y2="5129.1963" gradientTransform="matrix(1 0 0 1 0 -5008.2295)">
				<stop  offset="0" style="stop-color:#FEF336"/>
				<stop  offset="0.5" style="stop-color:#FC6D21"/>
			</linearGradient>
			<path fill="url(#SVGID_24_)" d="M222.71,20.14h-68.05l-11.51,52.6h19.07l3.95-20.38h47.34l-3.95,20.38h20.38
				c0,0,6.97-27.29,7.62-35.84C238.23,28.35,230.27,20.14,222.71,20.14z M167.81,38.55l1.64-8.22h41.42c0,0,5.26,0.66,5.26,8.22
				H167.81z"/>
			
				<linearGradient id="SVGID_25_" gradientUnits="userSpaceOnUse" x1="286.055" y1="5026.7217" x2="286.055" y2="5129.1963" gradientTransform="matrix(1 0 0 1 0 -5008.2295)">
				<stop  offset="0" style="stop-color:#FEF336"/>
				<stop  offset="0.5" style="stop-color:#FC6D21"/>
			</linearGradient>
			<path fill="url(#SVGID_25_)" d="M334.49,21.78h-66.41c0,0-16.77-0.66-26.3,30.58h63.1c10.52,0,10.55,12.16,0.36,12.16
				s-65.42,0-65.42,0l-2.2,9.86h81.76c0,0,12.16-3.62,12.16-18.08s-7.23-14.47-7.23-14.47h-57.53c0,0,1.97-6.9,7.23-9.21h58.85
				L334.49,21.78z"/>
			
				<linearGradient id="SVGID_26_" gradientUnits="userSpaceOnUse" x1="388.575" y1="5026.7217" x2="388.575" y2="5129.1963" gradientTransform="matrix(1 0 0 1 0 -5008.2295)">
				<stop  offset="0" style="stop-color:#FEF336"/>
				<stop  offset="0.5" style="stop-color:#FC6D21"/>
			</linearGradient>
			<polygon fill="url(#SVGID_26_)" points="346.99,20.14 337.12,72.74 354.55,72.74 358.16,53.01 414.38,53.01 410.44,74.38 
				428.19,74.38 440.03,20.14 422.27,20.14 417.67,38.55 361.78,38.55 365.4,20.14 			"/>
			
				<linearGradient id="SVGID_27_" gradientUnits="userSpaceOnUse" x1="482.2894" y1="5026.7295" x2="482.2894" y2="5129.2041" gradientTransform="matrix(1 0 0 1 0 -5008.2295)">
				<stop  offset="0" style="stop-color:#FEF336"/>
				<stop  offset="0.5" style="stop-color:#FC6D21"/>
			</linearGradient>
			<path fill="url(#SVGID_27_)" d="M514.33,20.14l-68.05-1.64l-10.85,54.25h18.08l3.95-20.71h48.33l-3.95,20.71h19.4l6.9-33.86
				C533.72,21.12,514.33,20.14,514.33,20.14z M508.74,39.53h-48.66l1.97-10.19h42.41C504.46,29.34,509.07,30,508.74,39.53z"/>
			
				<linearGradient id="SVGID_28_" gradientUnits="userSpaceOnUse" x1="624.96" y1="5026.7217" x2="624.96" y2="5129.1963" gradientTransform="matrix(1 0 0 1 0 -5008.2295)">
				<stop  offset="0" style="stop-color:#FEF336"/>
				<stop  offset="0.5" style="stop-color:#FC6D21"/>
			</linearGradient>
			<path fill="url(#SVGID_28_)" d="M572.85,20.14L562,72.74l45.37,1.64c0,0,7.56,0.66,17.1-6.58v4.93h34.19
				c0,0,21.37-0.66,24.99-27.12l4.27-25.48h-19.4c0,0-3.62,37.15-13.48,43.4l-22.68-0.66l9.53-42.74h-20.71
				c0,0-4.6,37.81-13.81,43.07H581.4l9.21-43.07h-17.76L572.85,20.14L572.85,20.14z"/>
			
				<linearGradient id="SVGID_29_" gradientUnits="userSpaceOnUse" x1="737.4" y1="5026.7197" x2="737.4" y2="5129.1943" gradientTransform="matrix(1 0 0 1 0 -5008.2295)">
				<stop  offset="0" style="stop-color:#FEF336"/>
				<stop  offset="0.5" style="stop-color:#FC6D21"/>
			</linearGradient>
			<path fill="url(#SVGID_29_)" d="M786.88,18.49L730,20.13c0,0-30.9,0.02-36.49,27.13c-5.59,27.12-5.59,25.47-5.59,25.47h86.14
				l1.97-10.85h-66.08l1.97-11.51h65.42l2.3-10.85h-64.11c0,0-1.32-9.53,20.38-10.19s48.33,0,48.33,0L786.88,18.49z"/>
			
				<linearGradient id="SVGID_30_" gradientUnits="userSpaceOnUse" x1="831.09" y1="5026.7197" x2="831.09" y2="5129.1943" gradientTransform="matrix(1 0 0 1 0 -5008.2295)">
				<stop  offset="0" style="stop-color:#FEF336"/>
				<stop  offset="0.5" style="stop-color:#FC6D21"/>
			</linearGradient>
			<path fill="url(#SVGID_30_)" d="M880.57,18.49l-56.88,1.64c0,0-30.9,0.02-36.49,27.13c-5.59,27.12-5.59,25.47-5.59,25.47h86.14
				l1.97-10.85h-66.08l1.97-11.51h65.42l2.3-10.85h-64.11c0,0-1.32-9.53,20.38-10.19s48.33,0,48.33,0L880.57,18.49z"/>
			
				<linearGradient id="SVGID_31_" gradientUnits="userSpaceOnUse" x1="926.055" y1="5026.7217" x2="926.055" y2="5129.1963" gradientTransform="matrix(1 0 0 1 0 -5008.2295)">
				<stop  offset="0" style="stop-color:#FEF336"/>
				<stop  offset="0.5" style="stop-color:#FC6D21"/>
			</linearGradient>
			<polygon fill="url(#SVGID_31_)" points="886.82,19.81 875.86,73.94 893.18,73.94 895.59,60.57 909.83,53.34 935.48,73.94 
				963.09,73.94 926.05,45.62 976.25,19.81 948.85,19.81 899.53,44.14 904.36,19.81 			"/>
		</g>
		<g>
			
				<linearGradient id="SVGID_32_" gradientUnits="userSpaceOnUse" x1="318.0004" y1="5026.7217" x2="318.0004" y2="5129.1963" gradientTransform="matrix(1 0 0 1 0 -5008.2295)">
				<stop  offset="0" style="stop-color:#FEF336"/>
				<stop  offset="0.5" style="stop-color:#FC6D21"/>
			</linearGradient>
			<path fill="url(#SVGID_32_)" d="M335.84,90.68h-37.55l-6.35,29.03h10.52l2.18-11.25h26.12l-2.18,11.25h11.25
				c0,0,3.84-15.06,4.21-19.77C344.4,95.22,340.01,90.68,335.84,90.68z M305.54,100.84l0.91-4.54h22.86c0,0,2.9,0.36,2.9,4.54
				H305.54z"/>
			
				<linearGradient id="SVGID_33_" gradientUnits="userSpaceOnUse" x1="265.615" y1="5026.7217" x2="265.615" y2="5129.1963" gradientTransform="matrix(1 0 0 1 0 -5008.2295)">
				<stop  offset="0" style="stop-color:#FEF336"/>
				<stop  offset="0.5" style="stop-color:#FC6D21"/>
			</linearGradient>
			<path fill="url(#SVGID_33_)" d="M292.34,91.59h-36.65c0,0-9.25-0.36-14.51,16.87H276c5.81,0,5.82,6.71,0.2,6.71s-36.1,0-36.1,0
				l-1.21,5.44h45.12c0,0,6.71-2,6.71-9.98s-3.99-7.98-3.99-7.98h-31.75c0,0,1.09-3.81,3.99-5.08h32.47L292.34,91.59z"/>
			
				<linearGradient id="SVGID_34_" gradientUnits="userSpaceOnUse" x1="370.795" y1="5026.7217" x2="370.795" y2="5129.1963" gradientTransform="matrix(1 0 0 1 0 -5008.2295)">
				<stop  offset="0" style="stop-color:#FEF336"/>
				<stop  offset="0.5" style="stop-color:#FC6D21"/>
			</linearGradient>
			<path fill="url(#SVGID_34_)" d="M397.52,91.59h-36.65c0,0-9.25-0.36-14.51,16.87h34.82c5.81,0,5.82,6.71,0.2,6.71s-36.1,0-36.1,0
				l-1.21,5.44h45.12c0,0,6.71-2,6.71-9.98s-3.99-7.98-3.99-7.98h-31.75c0,0,1.09-3.81,3.99-5.08h32.47L397.52,91.59z"/>
			
				<linearGradient id="SVGID_35_" gradientUnits="userSpaceOnUse" x1="424.195" y1="5026.7217" x2="424.195" y2="5129.1963" gradientTransform="matrix(1 0 0 1 0 -5008.2295)">
				<stop  offset="0" style="stop-color:#FEF336"/>
				<stop  offset="0.5" style="stop-color:#FC6D21"/>
			</linearGradient>
			<path fill="url(#SVGID_35_)" d="M451.5,89.76l-31.39,0.91c0,0-17.05,0.01-20.14,14.97s-3.08,14.06-3.08,14.06h47.53l1.09-5.99
				h-36.47l1.09-6.35h36.1l1.27-5.99h-35.38c0,0-0.73-5.26,11.25-5.62s26.67,0,26.67,0L451.5,89.76z"/>
			
				<linearGradient id="SVGID_36_" gradientUnits="userSpaceOnUse" x1="475.0336" y1="5026.7217" x2="475.0336" y2="5129.1963" gradientTransform="matrix(1 0 0 1 0 -5008.2295)">
				<stop  offset="0" style="stop-color:#FEF336"/>
				<stop  offset="0.5" style="stop-color:#FC6D21"/>
			</linearGradient>
			<path fill="url(#SVGID_36_)" d="M492.98,89.42c-7.85,0-37.78,0-37.78,0l-5.19,31.54h47.41v-10c0,0,1.19,0.31-1.04-2.31h3.65
				V97.57C500.04,97.58,500.84,89.42,492.98,89.42z M487.65,115.12h-27.78l0.77-6.46c0,0,19.75,0,23.45,0
				S487.65,115.12,487.65,115.12z M490.79,101.73H461.2l0.61-6.46c0,0,21.72,0,25.43,0S490.79,101.73,490.79,101.73z"/>
			
				<linearGradient id="SVGID_37_" gradientUnits="userSpaceOnUse" x1="532.6356" y1="5026.7217" x2="532.6356" y2="5129.1963" gradientTransform="matrix(1 0 0 1 0 -5008.2295)">
				<stop  offset="0" style="stop-color:#FEF336"/>
				<stop  offset="0.5" style="stop-color:#FC6D21"/>
			</linearGradient>
			<path fill="url(#SVGID_37_)" d="M555.07,89.99c0,0-38.08-0.57-39.44,0c-24.03,19.38-5.33,29.58-5.33,29.58s36.16,0.83,38.08,0
				C574.23,104.27,555.07,89.99,555.07,89.99z M542.58,114.15c-1.22,0.52-24.05,0-24.05,0s-11.81-6.44,3.36-18.68
				c0.86-0.36,24.91,0,24.91,0S558.9,104.48,542.58,114.15z"/>
			
				<linearGradient id="SVGID_38_" gradientUnits="userSpaceOnUse" x1="595.5433" y1="5026.7217" x2="595.5433" y2="5129.1963" gradientTransform="matrix(1 0 0 1 0 -5008.2295)">
				<stop  offset="0" style="stop-color:#FEF336"/>
				<stop  offset="0.5" style="stop-color:#FC6D21"/>
			</linearGradient>
			<path fill="url(#SVGID_38_)" d="M573.68,89.74l45.03,0.32c0,0,14.49,9.18-2.96,18.06l-39.57,1.09c0,0-3.74,1.4-2.49,4.99H617
				c0,0,7.32,1.56,0,6.08h-49.23c0,0-4.52-9.66,5.3-18.07h41.76c0,0,3.9,0.16,2.34-5.61h-43.63
				C573.53,96.6,567.45,94.42,573.68,89.74z"/>
			
				<linearGradient id="SVGID_39_" gradientUnits="userSpaceOnUse" x1="712.5133" y1="5026.7217" x2="712.5133" y2="5129.1963" gradientTransform="matrix(1 0 0 1 0 -5008.2295)">
				<stop  offset="0" style="stop-color:#FEF336"/>
				<stop  offset="0.5" style="stop-color:#FC6D21"/>
			</linearGradient>
			<path fill="url(#SVGID_39_)" d="M690.65,89.74l45.03,0.32c0,0,14.49,9.18-2.96,18.06l-39.57,1.09c0,0-3.74,1.4-2.49,4.99h43.31
				c0,0,7.32,1.56,0,6.08h-49.23c0,0-4.52-9.66,5.3-18.07h41.76c0,0,3.9,0.16,2.34-5.61h-43.63
				C690.49,96.6,684.42,94.42,690.65,89.74z"/>
			<g>
				
					<linearGradient id="SVGID_40_" gradientUnits="userSpaceOnUse" x1="654.5544" y1="5026.7217" x2="654.5544" y2="5129.1963" gradientTransform="matrix(1 0 0 1 0 -5008.2295)">
					<stop  offset="0" style="stop-color:#FEF336"/>
					<stop  offset="0.5" style="stop-color:#FC6D21"/>
				</linearGradient>
				<path fill="url(#SVGID_40_)" d="M668.85,102.13h-28.28c-5.84,3.74,0,7.25,0,7.25h28.28
					C673.99,104.47,668.85,102.13,668.85,102.13z"/>
				
					<linearGradient id="SVGID_41_" gradientUnits="userSpaceOnUse" x1="653.2875" y1="5026.7217" x2="653.2875" y2="5129.1963" gradientTransform="matrix(1 0 0 1 0 -5008.2295)">
					<stop  offset="0" style="stop-color:#FEF336"/>
					<stop  offset="0.5" style="stop-color:#FC6D21"/>
				</linearGradient>
				<path fill="url(#SVGID_41_)" d="M676.19,92.14c-6.32-2.95-37.59-3.62-42.02,1.49c-17.16,15.17-1.32,25.6-1.32,25.6
					s33.44,0.81,35.22,0C683.09,113.18,682.51,95.08,676.19,92.14z M667.58,113.49c-1.01,0.44-30.7,0-30.7,0s-9.82-6.79,2.8-16.97
					c0.71-0.3,31.41,0,31.41,0S681.15,105.45,667.58,113.49z"/>
			</g>
			
				<linearGradient id="SVGID_42_" gradientUnits="userSpaceOnUse" x1="752.7518" y1="5026.7217" x2="752.7518" y2="5129.1963" gradientTransform="matrix(1 0 0 1 0 -5008.2295)">
				<stop  offset="0" style="stop-color:#FEF336"/>
				<stop  offset="0.5" style="stop-color:#FC6D21"/>
			</linearGradient>
			<path fill="url(#SVGID_42_)" d="M749.35,90.04c0,0,11.69-2.16,10.52,9.99l-3.51,18.46c0,0-8.18,6.31-7.01-2.8l3.51-15.66
				c0,0,1.69-5.36-6.54-3.27C746.31,96.75,743.27,91.27,749.35,90.04z"/>
		</g>
	</g>
</g>
</svg>
